ffmpeg started on 2026-01-18 at 19:47:37
Report written to "C:\Dev\OSPanel\domains\Java-AT\modules\ffmpeg\FFMetrics\reports\psnr_report-6.txt"
Log level: 32
Command line:
ffmpeg -hide_banner -nostdin -r 24000/1001 -i "F:\\Convert\\files\\[DC] Make Heroine ga Oosugiru - 07_Telegram_HEVC(149).mkv" -r 24000/1001 -i "F:\\Convert\\files\\[DC] Make Heroine ga Oosugiru - 07_Telegram.mp4" -lavfi "[0:v]settb=AVTB,setpts=PTS-STARTPTS,format=pix_fmts=yuv420p10le,fps=24000/1001,scale=1920:1080:flags=lanczos:param0=3:out_range=limited:out_color_matrix=bt709:out_chroma_loc=left,setsar=1/1,setdar=(1920/1080)*(1/1),colorspace=format=yuv420p10:range=tv:primaries=bt709:trc=bt709:space=bt709:fast=0[main];[1:v]settb=AVTB,setpts=PTS-STARTPTS,format=pix_fmts=yuv420p,fps=24000/1001,scale=1920:1080:flags=lanczos:param0=3:out_range=limited:out_color_matrix=bt709:out_chroma_loc=left,setsar=1.000,setdar=1.778,colorspace=format=yuv420p:range=tv:primaries=bt709:trc=bt709:space=bt709:fast=0[ref];[main][ref]psnr=eof_action=endall:stats_file='C\\:/Dev/OSPanel/domains/Java-AT/modules/ffmpeg/FFMetrics/logs/psnr_logfile-6.txt'" -f null -
Input #0, matroska,webm, from 'F:\Convert\files\[DC] Make Heroine ga Oosugiru - 07_Telegram_HEVC(149).mkv':
  Metadata:
    COMPATIBLE_BRANDS: isomiso2avc1mp41
    MAJOR_BRAND     : isom
    MINOR_VERSION   : 512
    ENCODER         : Lavf61.7.100
  Duration: 00:24:06.79, start: -0.021000, bitrate: 981 kb/s
  Stream #0:0: Video: hevc (Main 10), yuv420p10le(tv, bt709, progressive), 1920x1080 [SAR 1:1 DAR 16:9], 23.98 fps, 23.98 tbr, 1k tbn (default)
      Metadata:
        HANDLER_NAME    : VideoHandler
        VENDOR_ID       : [0][0][0][0]
        ENCODER         : Lavc61.19.100 libx265
        BPS             : 783959
        DURATION        : 00:24:06.569708333
        NUMBER_OF_FRAMES: 34683
        NUMBER_OF_BYTES : 141756474
        _STATISTICS_WRITING_APP: mkvpropedit v94.0 ('Initiate') 64-bit
        _STATISTICS_WRITING_DATE_UTC: 2026-01-17 15:57:56
        _STATISTICS_TAGS: BPS DURATION NUMBER_OF_FRAMES NUMBER_OF_BYTES
  Stream #0:1: Audio: aac (LC), 48000 Hz, stereo, fltp (default)
      Metadata:
        HANDLER_NAME    : SoundHandler
        VENDOR_ID       : [0][0][0][0]
        ENCODER         : Lavc61.19.100 aac
        BPS             : 193194
        DURATION        : 00:24:06.784000000
        NUMBER_OF_FRAMES: 67819
        NUMBER_OF_BYTES : 34938755
        _STATISTICS_WRITING_APP: mkvpropedit v94.0 ('Initiate') 64-bit
        _STATISTICS_WRITING_DATE_UTC: 2026-01-17 15:57:56
        _STATISTICS_TAGS: BPS DURATION NUMBER_OF_FRAMES NUMBER_OF_BYTES
Input #1, mov,mp4,m4a,3gp,3g2,mj2, from 'F:\Convert\files\[DC] Make Heroine ga Oosugiru - 07_Telegram.mp4':
  Metadata:
    major_brand     : isom
    minor_version   : 512
    compatible_brands: isomiso2avc1mp41
    encoder         : Lavf60.16.100
  Duration: 00:24:06.74, start: 0.000000, bitrate: 3764 kb/s
  Stream #1:0[0x1](und): Video: h264 (High) (avc1 / 0x31637661), yuv420p(tv, bt709, progressive), 1920x1080 [SAR 1:1 DAR 16:9], 3616 kb/s, 23.98 fps, 23.98 tbr, 24k tbn (default)
      Metadata:
        handler_name    : VideoHandler
        vendor_id       : [0][0][0][0]
        encoder         : Lavc60.31.102 h264_qsv
  Stream #1:1[0x2](und): Audio: aac (HE-AACv2) (mp4a / 0x6134706D), 48000 Hz, stereo, fltp, 144 kb/s (default)
      Metadata:
        handler_name    : SoundHandler
        vendor_id       : [0][0][0][0]
Stream mapping:
  Stream #0:0 (hevc) -> settb:default
  Stream #1:0 (h264) -> settb:default
  psnr:default -> Stream #0:0 (wrapped_avframe)
  Stream #0:1 -> #0:1 (aac (native) -> pcm_s16le (native))
Output #0, null, to 'pipe:':
  Metadata:
    COMPATIBLE_BRANDS: isomiso2avc1mp41
    MAJOR_BRAND     : isom
    MINOR_VERSION   : 512
    encoder         : Lavf61.7.100
  Stream #0:0: Video: wrapped_avframe, yuv420p10le(tv, bt709, progressive), 1920x1080 [SAR 1:1 DAR 16:9], q=2-31, 200 kb/s, 23.98 fps, 23.98 tbn
      Metadata:
        encoder         : Lavc61.19.100 wrapped_avframe
  Stream #0:1: Audio: pcm_s16le, 48000 Hz, stereo, s16, 1536 kb/s (default)
      Metadata:
        HANDLER_NAME    : SoundHandler
        VENDOR_ID       : [0][0][0][0]
        _STATISTICS_TAGS: BPS DURATION NUMBER_OF_FRAMES NUMBER_OF_BYTES
        BPS             : 193194
        DURATION        : 00:24:06.784000000
        NUMBER_OF_FRAMES: 67819
        NUMBER_OF_BYTES : 34938755
        _STATISTICS_WRITING_APP: mkvpropedit v94.0 ('Initiate') 64-bit
        _STATISTICS_WRITING_DATE_UTC: 2026-01-17 15:57:56
        encoder         : Lavc61.19.100 pcm_s16le
frame=  126 fps=0.0 q=-0.0 size=N/A time=00:00:05.25 bitrate=N/A speed=10.4x    frame=  338 fps=328 q=-0.0 size=N/A time=00:00:14.09 bitrate=N/A speed=13.7x    frame=  544 fps=353 q=-0.0 size=N/A time=00:00:22.68 bitrate=N/A speed=14.7x    frame=  750 fps=365 q=-0.0 size=N/A time=00:00:31.28 bitrate=N/A speed=15.2x    frame=  931 fps=363 q=-0.0 size=N/A time=00:00:38.83 bitrate=N/A speed=15.1x    frame= 1090 fps=352 q=-0.0 size=N/A time=00:00:45.46 bitrate=N/A speed=14.7x    frame= 1255 fps=348 q=-0.0 size=N/A time=00:00:52.34 bitrate=N/A speed=14.5x    frame= 1426 fps=347 q=-0.0 size=N/A time=00:00:59.47 bitrate=N/A speed=14.5x    frame= 1571 fps=339 q=-0.0 size=N/A time=00:01:05.52 bitrate=N/A speed=14.1x    frame= 1732 fps=336 q=-0.0 size=N/A time=00:01:12.23 bitrate=N/A speed=  14x    frame= 1902 fps=336 q=-0.0 size=N/A time=00:01:19.32 bitrate=N/A speed=  14x    frame= 2057 fps=332 q=-0.0 size=N/A time=00:01:25.79 bitrate=N/A speed=13.9x    frame= 2179 fps=325 q=-0.0 size=N/A time=00:01:30.88 bitrate=N/A speed=13.6x    frame= 2344 fps=325 q=-0.0 size=N/A time=00:01:37.76 bitrate=N/A speed=13.6x    frame= 2477 fps=321 q=-0.0 size=N/A time=00:01:43.31 bitrate=N/A speed=13.4x    frame= 2632 fps=319 q=-0.0 size=N/A time=00:01:49.77 bitrate=N/A speed=13.3x    frame= 2818 fps=322 q=-0.0 size=N/A time=00:01:57.53 bitrate=N/A speed=13.4x    frame= 2988 fps=322 q=-0.0 size=N/A time=00:02:04.62 bitrate=N/A speed=13.4x    frame= 3192 fps=326 q=-0.0 size=N/A time=00:02:13.13 bitrate=N/A speed=13.6x    frame= 3401 fps=330 q=-0.0 size=N/A time=00:02:21.85 bitrate=N/A speed=13.8x    frame= 3600 fps=333 q=-0.0 size=N/A time=00:02:30.15 bitrate=N/A speed=13.9x    frame= 3804 fps=336 q=-0.0 size=N/A time=00:02:38.65 bitrate=N/A speed=  14x    frame= 4013 fps=339 q=-0.0 size=N/A time=00:02:47.37 bitrate=N/A speed=14.1x    frame= 4216 fps=341 q=-0.0 size=N/A time=00:02:55.84 bitrate=N/A speed=14.2x    frame= 4421 fps=343 q=-0.0 size=N/A time=00:03:04.39 bitrate=N/A speed=14.3x    frame= 4627 fps=345 q=-0.0 size=N/A time=00:03:12.98 bitrate=N/A speed=14.4x    frame= 4828 fps=347 q=-0.0 size=N/A time=00:03:21.36 bitrate=N/A speed=14.5x    frame= 5032 fps=349 q=-0.0 size=N/A time=00:03:29.87 bitrate=N/A speed=14.6x    frame= 5235 fps=350 q=-0.0 size=N/A time=00:03:38.34 bitrate=N/A speed=14.6x    frame= 5439 fps=352 q=-0.0 size=N/A time=00:03:46.85 bitrate=N/A speed=14.7x    frame= 5641 fps=353 q=-0.0 size=N/A time=00:03:55.27 bitrate=N/A speed=14.7x    frame= 5842 fps=354 q=-0.0 size=N/A time=00:04:03.66 bitrate=N/A speed=14.8x    frame= 6046 fps=355 q=-0.0 size=N/A time=00:04:12.16 bitrate=N/A speed=14.8x    frame= 6244 fps=356 q=-0.0 size=N/A time=00:04:20.42 bitrate=N/A speed=14.9x    frame= 6447 fps=357 q=-0.0 size=N/A time=00:04:28.89 bitrate=N/A speed=14.9x    frame= 6646 fps=358 q=-0.0 size=N/A time=00:04:37.19 bitrate=N/A speed=14.9x    frame= 6839 fps=359 q=-0.0 size=N/A time=00:04:45.24 bitrate=N/A speed=  15x    frame= 7037 fps=359 q=-0.0 size=N/A time=00:04:53.50 bitrate=N/A speed=  15x    frame= 7224 fps=359 q=-0.0 size=N/A time=00:05:01.30 bitrate=N/A speed=  15x    frame= 7413 fps=359 q=-0.0 size=N/A time=00:05:09.18 bitrate=N/A speed=  15x    frame= 7596 fps=359 q=-0.0 size=N/A time=00:05:16.81 bitrate=N/A speed=  15x    frame= 7783 fps=359 q=-0.0 size=N/A time=00:05:24.61 bitrate=N/A speed=  15x    frame= 7978 fps=360 q=-0.0 size=N/A time=00:05:32.74 bitrate=N/A speed=  15x    frame= 8171 fps=360 q=-0.0 size=N/A time=00:05:40.79 bitrate=N/A speed=  15x    frame= 8373 fps=361 q=-0.0 size=N/A time=00:05:49.22 bitrate=N/A speed=  15x    frame= 8571 fps=361 q=-0.0 size=N/A time=00:05:57.48 bitrate=N/A speed=15.1x    frame= 8770 fps=362 q=-0.0 size=N/A time=00:06:05.78 bitrate=N/A speed=15.1x    frame= 8966 fps=362 q=-0.0 size=N/A time=00:06:13.95 bitrate=N/A speed=15.1x    frame= 9168 fps=363 q=-0.0 size=N/A time=00:06:22.38 bitrate=N/A speed=15.1x    frame= 9368 fps=363 q=-0.0 size=N/A time=00:06:30.72 bitrate=N/A speed=15.2x    frame= 9571 fps=364 q=-0.0 size=N/A time=00:06:39.19 bitrate=N/A speed=15.2x    frame= 9765 fps=364 q=-0.0 size=N/A time=00:06:47.28 bitrate=N/A speed=15.2x    frame= 9972 fps=365 q=-0.0 size=N/A time=00:06:55.91 bitrate=N/A speed=15.2x    frame=10167 fps=365 q=-0.0 size=N/A time=00:07:04.04 bitrate=N/A speed=15.2x    frame=10364 fps=365 q=-0.0 size=N/A time=00:07:12.26 bitrate=N/A speed=15.2x    frame=10565 fps=366 q=-0.0 size=N/A time=00:07:20.64 bitrate=N/A speed=15.3x    frame=10765 fps=366 q=-0.0 size=N/A time=00:07:28.99 bitrate=N/A speed=15.3x    frame=10957 fps=366 q=-0.0 size=N/A time=00:07:36.99 bitrate=N/A speed=15.3x    frame=11158 fps=367 q=-0.0 size=N/A time=00:07:45.38 bitrate=N/A speed=15.3x    frame=11350 fps=367 q=-0.0 size=N/A time=00:07:53.38 bitrate=N/A speed=15.3x    frame=11563 fps=367 q=-0.0 size=N/A time=00:08:02.27 bitrate=N/A speed=15.3x    frame=11753 fps=368 q=-0.0 size=N/A time=00:08:10.19 bitrate=N/A speed=15.3x    frame=11958 fps=368 q=-0.0 size=N/A time=00:08:18.74 bitrate=N/A speed=15.3x    frame=12141 fps=368 q=-0.0 size=N/A time=00:08:26.38 bitrate=N/A speed=15.3x    frame=12346 fps=368 q=-0.0 size=N/A time=00:08:34.93 bitrate=N/A speed=15.4x    frame=12547 fps=369 q=-0.0 size=N/A time=00:08:43.31 bitrate=N/A speed=15.4x    frame=12757 fps=369 q=-0.0 size=N/A time=00:08:52.07 bitrate=N/A speed=15.4x    frame=12962 fps=369 q=-0.0 size=N/A time=00:09:00.62 bitrate=N/A speed=15.4x    frame=13159 fps=370 q=-0.0 size=N/A time=00:09:08.83 bitrate=N/A speed=15.4x    frame=13352 fps=370 q=-0.0 size=N/A time=00:09:16.88 bitrate=N/A speed=15.4x    frame=13556 fps=370 q=-0.0 size=N/A time=00:09:25.39 bitrate=N/A speed=15.4x    frame=13755 fps=370 q=-0.0 size=N/A time=00:09:33.69 bitrate=N/A speed=15.4x    frame=13952 fps=370 q=-0.0 size=N/A time=00:09:41.91 bitrate=N/A speed=15.4x    frame=14129 fps=370 q=-0.0 size=N/A time=00:09:49.29 bitrate=N/A speed=15.4x    frame=14330 fps=370 q=-0.0 size=N/A time=00:09:57.68 bitrate=N/A speed=15.4x    frame=14522 fps=370 q=-0.0 size=N/A time=00:10:05.68 bitrate=N/A speed=15.4x    frame=14718 fps=370 q=-0.0 size=N/A time=00:10:13.86 bitrate=N/A speed=15.5x    frame=14919 fps=371 q=-0.0 size=N/A time=00:10:22.24 bitrate=N/A speed=15.5x    frame=15108 fps=371 q=-0.0 size=N/A time=00:10:30.12 bitrate=N/A speed=15.5x    frame=15290 fps=370 q=-0.0 size=N/A time=00:10:37.72 bitrate=N/A speed=15.4x    frame=15486 fps=370 q=-0.0 size=N/A time=00:10:45.89 bitrate=N/A speed=15.4x    frame=15689 fps=371 q=-0.0 size=N/A time=00:10:54.36 bitrate=N/A speed=15.5x    frame=15893 fps=371 q=-0.0 size=N/A time=00:11:02.87 bitrate=N/A speed=15.5x    frame=16089 fps=371 q=-0.0 size=N/A time=00:11:11.04 bitrate=N/A speed=15.5x    frame=16296 fps=372 q=-0.0 size=N/A time=00:11:19.67 bitrate=N/A speed=15.5x    frame=16495 fps=372 q=-0.0 size=N/A time=00:11:27.97 bitrate=N/A speed=15.5x    frame=16698 fps=372 q=-0.0 size=N/A time=00:11:36.44 bitrate=N/A speed=15.5x    frame=16901 fps=372 q=-0.0 size=N/A time=00:11:44.91 bitrate=N/A speed=15.5x    frame=17102 fps=372 q=-0.0 size=N/A time=00:11:53.29 bitrate=N/A speed=15.5x    frame=17299 fps=373 q=-0.0 size=N/A time=00:12:01.51 bitrate=N/A speed=15.5x    frame=17504 fps=373 q=-0.0 size=N/A time=00:12:10.06 bitrate=N/A speed=15.5x    frame=17692 fps=373 q=-0.0 size=N/A time=00:12:17.90 bitrate=N/A speed=15.5x    frame=17891 fps=373 q=-0.0 size=N/A time=00:12:26.20 bitrate=N/A speed=15.5x    frame=18095 fps=373 q=-0.0 size=N/A time=00:12:34.71 bitrate=N/A speed=15.6x    frame=18287 fps=373 q=-0.0 size=N/A time=00:12:42.72 bitrate=N/A speed=15.6x    frame=18478 fps=373 q=-0.0 size=N/A time=00:12:50.68 bitrate=N/A speed=15.6x    frame=18684 fps=373 q=-0.0 size=N/A time=00:12:59.27 bitrate=N/A speed=15.6x    frame=18893 fps=374 q=-0.0 size=N/A time=00:13:07.99 bitrate=N/A speed=15.6x    frame=19091 fps=374 q=-0.0 size=N/A time=00:13:16.25 bitrate=N/A speed=15.6x    frame=19293 fps=374 q=-0.0 size=N/A time=00:13:24.67 bitrate=N/A speed=15.6x    frame=19501 fps=374 q=-0.0 size=N/A time=00:13:33.35 bitrate=N/A speed=15.6x    frame=19702 fps=374 q=-0.0 size=N/A time=00:13:41.73 bitrate=N/A speed=15.6x    frame=19912 fps=375 q=-0.0 size=N/A time=00:13:50.49 bitrate=N/A speed=15.6x    frame=20121 fps=375 q=-0.0 size=N/A time=00:13:59.21 bitrate=N/A speed=15.6x    frame=20331 fps=375 q=-0.0 size=N/A time=00:14:07.97 bitrate=N/A speed=15.6x    frame=20525 fps=375 q=-0.0 size=N/A time=00:14:16.06 bitrate=N/A speed=15.6x    frame=20714 fps=375 q=-0.0 size=N/A time=00:14:23.94 bitrate=N/A speed=15.6x    frame=20917 fps=375 q=-0.0 size=N/A time=00:14:32.41 bitrate=N/A speed=15.6x    frame=21117 fps=375 q=-0.0 size=N/A time=00:14:40.75 bitrate=N/A speed=15.7x    frame=21325 fps=375 q=-0.0 size=N/A time=00:14:49.43 bitrate=N/A speed=15.7x    frame=21527 fps=376 q=-0.0 size=N/A time=00:14:57.85 bitrate=N/A speed=15.7x    frame=21728 fps=376 q=-0.0 size=N/A time=00:15:06.23 bitrate=N/A speed=15.7x    frame=21926 fps=376 q=-0.0 size=N/A time=00:15:14.49 bitrate=N/A speed=15.7x    frame=22137 fps=376 q=-0.0 size=N/A time=00:15:23.29 bitrate=N/A speed=15.7x    frame=22338 fps=376 q=-0.0 size=N/A time=00:15:31.68 bitrate=N/A speed=15.7x    frame=22542 fps=376 q=-0.0 size=N/A time=00:15:40.18 bitrate=N/A speed=15.7x    frame=22740 fps=377 q=-0.0 size=N/A time=00:15:48.44 bitrate=N/A speed=15.7x    frame=22938 fps=377 q=-0.0 size=N/A time=00:15:56.70 bitrate=N/A speed=15.7x    frame=23129 fps=377 q=-0.0 size=N/A time=00:16:04.67 bitrate=N/A speed=15.7x    frame=23329 fps=377 q=-0.0 size=N/A time=00:16:13.01 bitrate=N/A speed=15.7x    frame=23541 fps=377 q=-0.0 size=N/A time=00:16:21.85 bitrate=N/A speed=15.7x    frame=23739 fps=377 q=-0.0 size=N/A time=00:16:30.11 bitrate=N/A speed=15.7x    frame=23943 fps=377 q=-0.0 size=N/A time=00:16:38.62 bitrate=N/A speed=15.7x    frame=24137 fps=377 q=-0.0 size=N/A time=00:16:46.71 bitrate=N/A speed=15.7x    frame=24342 fps=377 q=-0.0 size=N/A time=00:16:55.26 bitrate=N/A speed=15.7x    frame=24545 fps=377 q=-0.0 size=N/A time=00:17:03.73 bitrate=N/A speed=15.7x    frame=24752 fps=378 q=-0.0 size=N/A time=00:17:12.36 bitrate=N/A speed=15.7x    frame=24958 fps=378 q=-0.0 size=N/A time=00:17:20.95 bitrate=N/A speed=15.8x    frame=25159 fps=378 q=-0.0 size=N/A time=00:17:29.33 bitrate=N/A speed=15.8x    frame=25364 fps=378 q=-0.0 size=N/A time=00:17:37.89 bitrate=N/A speed=15.8x    frame=25573 fps=378 q=-0.0 size=N/A time=00:17:46.60 bitrate=N/A speed=15.8x    frame=25770 fps=378 q=-0.0 size=N/A time=00:17:54.82 bitrate=N/A speed=15.8x    frame=25970 fps=378 q=-0.0 size=N/A time=00:18:03.16 bitrate=N/A speed=15.8x    frame=26168 fps=378 q=-0.0 size=N/A time=00:18:11.42 bitrate=N/A speed=15.8x    frame=26377 fps=379 q=-0.0 size=N/A time=00:18:20.14 bitrate=N/A speed=15.8x    frame=26580 fps=379 q=-0.0 size=N/A time=00:18:28.60 bitrate=N/A speed=15.8x    frame=26782 fps=379 q=-0.0 size=N/A time=00:18:37.03 bitrate=N/A speed=15.8x    frame=26971 fps=379 q=-0.0 size=N/A time=00:18:44.91 bitrate=N/A speed=15.8x    frame=27155 fps=378 q=-0.0 size=N/A time=00:18:52.58 bitrate=N/A speed=15.8x    frame=27350 fps=378 q=-0.0 size=N/A time=00:19:00.72 bitrate=N/A speed=15.8x    frame=27544 fps=379 q=-0.0 size=N/A time=00:19:08.81 bitrate=N/A speed=15.8x    frame=27743 fps=379 q=-0.0 size=N/A time=00:19:17.11 bitrate=N/A speed=15.8x    frame=27942 fps=379 q=-0.0 size=N/A time=00:19:25.41 bitrate=N/A speed=15.8x    frame=28139 fps=379 q=-0.0 size=N/A time=00:19:33.63 bitrate=N/A speed=15.8x    frame=28337 fps=379 q=-0.0 size=N/A time=00:19:41.88 bitrate=N/A speed=15.8x    frame=28542 fps=379 q=-0.0 size=N/A time=00:19:50.43 bitrate=N/A speed=15.8x    frame=28732 fps=379 q=-0.0 size=N/A time=00:19:58.36 bitrate=N/A speed=15.8x    frame=28905 fps=378 q=-0.0 size=N/A time=00:20:05.57 bitrate=N/A speed=15.8x    frame=29081 fps=378 q=-0.0 size=N/A time=00:20:12.92 bitrate=N/A speed=15.8x    frame=29274 fps=378 q=-0.0 size=N/A time=00:20:20.96 bitrate=N/A speed=15.8x    frame=29454 fps=378 q=-0.0 size=N/A time=00:20:28.47 bitrate=N/A speed=15.8x    frame=29640 fps=378 q=-0.0 size=N/A time=00:20:36.23 bitrate=N/A speed=15.8x    frame=29819 fps=378 q=-0.0 size=N/A time=00:20:43.70 bitrate=N/A speed=15.8x    frame=29981 fps=377 q=-0.0 size=N/A time=00:20:50.45 bitrate=N/A speed=15.7x    frame=30162 fps=377 q=-0.0 size=N/A time=00:20:58.00 bitrate=N/A speed=15.7x    frame=30361 fps=377 q=-0.0 size=N/A time=00:21:06.30 bitrate=N/A speed=15.7x    frame=30566 fps=377 q=-0.0 size=N/A time=00:21:14.85 bitrate=N/A speed=15.7x    frame=30760 fps=377 q=-0.0 size=N/A time=00:21:22.94 bitrate=N/A speed=15.7x    frame=30965 fps=377 q=-0.0 size=N/A time=00:21:31.49 bitrate=N/A speed=15.7x    frame=31161 fps=377 q=-0.0 size=N/A time=00:21:39.67 bitrate=N/A speed=15.7x    frame=31353 fps=377 q=-0.0 size=N/A time=00:21:47.68 bitrate=N/A speed=15.7x    frame=31557 fps=377 q=-0.0 size=N/A time=00:21:56.18 bitrate=N/A speed=15.7x    frame=31751 fps=377 q=-0.0 size=N/A time=00:22:04.28 bitrate=N/A speed=15.7x    frame=31929 fps=377 q=-0.0 size=N/A time=00:22:11.70 bitrate=N/A speed=15.7x    frame=32122 fps=377 q=-0.0 size=N/A time=00:22:19.75 bitrate=N/A speed=15.7x    frame=32331 fps=377 q=-0.0 size=N/A time=00:22:28.47 bitrate=N/A speed=15.7x    frame=32527 fps=377 q=-0.0 size=N/A time=00:22:36.64 bitrate=N/A speed=15.7x    frame=32691 fps=377 q=-0.0 size=N/A time=00:22:43.48 bitrate=N/A speed=15.7x    frame=32851 fps=377 q=-0.0 size=N/A time=00:22:50.16 bitrate=N/A speed=15.7x    frame=33044 fps=377 q=-0.0 size=N/A time=00:22:58.21 bitrate=N/A speed=15.7x    frame=33233 fps=377 q=-0.0 size=N/A time=00:23:06.09 bitrate=N/A speed=15.7x    frame=33409 fps=376 q=-0.0 size=N/A time=00:23:13.43 bitrate=N/A speed=15.7x    frame=33574 fps=376 q=-0.0 size=N/A time=00:23:20.31 bitrate=N/A speed=15.7x    frame=33725 fps=376 q=-0.0 size=N/A time=00:23:26.61 bitrate=N/A speed=15.7x    frame=33850 fps=375 q=-0.0 size=N/A time=00:23:31.82 bitrate=N/A speed=15.6x    frame=34002 fps=374 q=-0.0 size=N/A time=00:23:38.16 bitrate=N/A speed=15.6x    frame=34163 fps=374 q=-0.0 size=N/A time=00:23:44.88 bitrate=N/A speed=15.6x    frame=34312 fps=374 q=-0.0 size=N/A time=00:23:51.09 bitrate=N/A speed=15.6x    frame=34446 fps=373 q=-0.0 size=N/A time=00:23:56.68 bitrate=N/A speed=15.6x    frame=34636 fps=373 q=-0.0 size=N/A time=00:24:04.60 bitrate=N/A speed=15.6x    [Parsed_psnr_16 @ 000001f6957d9cc0] PSNR y:48.942949 u:50.334139 v:50.381689 average:49.365353 min:38.010562 max:inf
[out#0/null @ 000001f688263a00] video:14903KiB audio:271276KiB subtitle:0KiB other streams:0KiB global headers:0KiB muxing overhead: unknown
frame=34683 fps=373 q=-0.0 Lsize=N/A time=00:24:06.57 bitrate=N/A speed=15.6x    
